<?xml version="1.0" standalone="no"?>
<!DOCTYPE svg PUBLIC "-//W3C//DTD SVG 20010904//EN"
 "http://www.w3.org/TR/2001/REC-SVG-20010904/DTD/svg10.dtd">
<svg version="1.0" xmlns="http://www.w3.org/2000/svg"
 width="512.000000pt" height="512.000000pt" viewBox="0 0 512.000000 512.000000"
 preserveAspectRatio="xMidYMid meet">
<metadata>
Created by potrace 1.16, written by Peter Selinger 2001-2019
</metadata>
<g transform="translate(0.000000,512.000000) scale(0.100000,-0.100000)"
fill="#000000" stroke="none">
<path d="M4438 5105 c-166 -33 -367 -111 -603 -234 -150 -78 -275 -150 -275
-160 0 -4 35 -24 78 -45 42 -21 123 -67 179 -102 l102 -65 133 67 c316 158
557 224 653 178 44 -21 60 -62 58 -149 -4 -164 -161 -521 -400 -908 l-60 -97
-53 81 c-243 374 -610 656 -1040 800 -634 212 -1325 104 -1852 -288 -116 -87
-274 -235 -358 -338 -420 -514 -563 -1212 -378 -1851 l20 -70 -75 -110 c-241
-353 -439 -733 -516 -991 -49 -165 -65 -355 -40 -475 35 -165 154 -289 322
-334 70 -19 245 -18 348 2 108 20 290 82 432 146 1238 556 3149 2437 3791
3732 84 169 144 322 183 466 31 117 43 320 23 409 -38 171 -154 291 -327 336
-71 19 -252 18 -345 0z m-3555 -3674 c130 -200 347 -417 553 -552 l94 -62
-137 -85 c-158 -98 -421 -236 -538 -282 -192 -77 -366 -109 -435 -80 -91 38
-82 198 26 464 55 133 175 367 271 526 88 147 97 160 103 160 3 0 31 -40 63
-89z"/>
<path d="M4456 2590 c-254 -325 -541 -645 -911 -1016 -365 -366 -688 -655
-1015 -910 -76 -60 -139 -113 -140 -118 0 -17 408 0 525 23 886 168 1535 849
1649 1729 16 126 22 432 9 432 -5 -1 -57 -64 -117 -140z"/>
</g>
</svg>
