<?xml version="1.0" standalone="no"?>
<!DOCTYPE svg PUBLIC "-//W3C//DTD SVG 20010904//EN"
 "http://www.w3.org/TR/2001/REC-SVG-20010904/DTD/svg10.dtd">
<svg version="1.0" xmlns="http://www.w3.org/2000/svg"
 width="512.000000pt" height="512.000000pt" viewBox="0 0 512.000000 512.000000"
 preserveAspectRatio="xMidYMid meet">
<metadata>
Created by potrace 1.16, written by Peter Selinger 2001-2019
</metadata>
<g transform="translate(0.000000,512.000000) scale(0.100000,-0.100000)"
fill="#000000" stroke="none">
<path d="M1324 5073 c-12 -2 -31 -14 -42 -26 -26 -28 -161 -289 -203 -392 -72
-178 -25 -340 122 -420 44 -23 69 -30 135 -33 72 -4 88 -1 143 23 150 68 213
221 160 387 -30 95 -173 378 -213 422 -31 34 -62 46 -102 39z"/>
<path d="M2535 5073 c-35 -8 -54 -34 -124 -162 -123 -225 -167 -348 -158 -437
11 -109 70 -194 169 -244 52 -26 72 -30 138 -30 66 0 86 4 138 30 112 56 167
145 167 270 0 65 -6 89 -43 180 -48 117 -171 347 -199 372 -21 18 -60 27 -88
21z"/>
<path d="M3743 5073 c-36 -7 -76 -64 -160 -232 -100 -198 -127 -280 -121 -364
9 -112 76 -205 179 -252 55 -24 71 -27 143 -23 66 3 91 10 135 33 143 78 193
240 127 410 -38 98 -183 376 -209 401 -24 23 -59 33 -94 27z"/>
<path d="M1155 3951 c-17 -4 -42 -15 -56 -24 -55 -36 -54 -27 -57 -639 l-3
-568 311 0 310 0 0 560 c0 617 1 607 -61 651 -33 23 -41 24 -224 26 -104 1
-204 -2 -220 -6z"/>
<path d="M2363 3951 c-48 -12 -78 -35 -97 -74 -14 -31 -16 -95 -16 -596 l0
-561 310 0 310 0 0 563 c0 529 -1 564 -19 597 -35 67 -63 75 -271 77 -102 1
-200 -2 -217 -6z"/>
<path d="M3570 3953 c-39 -8 -81 -43 -96 -79 -11 -27 -14 -139 -14 -594 l0
-560 310 0 311 0 -3 568 c-3 535 -4 569 -22 598 -38 63 -60 69 -271 71 -104 0
-201 -1 -215 -4z"/>
<path d="M620 2371 c-90 -28 -159 -91 -180 -165 -7 -27 -10 -120 -8 -277 l3
-236 27 -40 c18 -28 45 -50 83 -69 88 -42 132 -38 395 40 332 98 347 100 555
101 208 0 235 -5 538 -94 269 -80 349 -94 527 -94 178 0 258 14 527 94 300 88
330 94 533 94 206 0 238 -6 561 -101 262 -78 306 -83 394 -40 38 19 65 41 83
69 l27 40 3 236 c2 157 -1 250 -8 277 -16 57 -57 104 -121 139 l-54 30 -1930
2 c-1062 1 -1941 -2 -1955 -6z"/>
<path d="M1310 1424 c-41 -7 -174 -43 -295 -79 -243 -72 -314 -86 -404 -78
l-61 6 0 -461 0 -461 -236 -3 -235 -3 -40 -42 c-36 -39 -39 -47 -39 -99 0 -66
22 -109 72 -139 33 -20 51 -20 2488 -20 l2455 0 35 22 c50 31 70 70 70 137 0
52 -3 60 -39 99 l-40 42 -235 3 -236 3 0 459 0 458 -102 0 c-99 0 -113 3 -343
71 -274 82 -370 101 -499 101 -136 0 -208 -14 -451 -85 -262 -76 -333 -91
-494 -106 -88 -8 -154 -8 -242 0 -162 15 -234 31 -491 106 -119 35 -251 69
-293 74 -102 15 -253 12 -345 -5z"/>
</g>
</svg>
