<?xml version="1.0" standalone="no"?>
<!DOCTYPE svg PUBLIC "-//W3C//DTD SVG 20010904//EN"
 "http://www.w3.org/TR/2001/REC-SVG-20010904/DTD/svg10.dtd">
<svg version="1.0" xmlns="http://www.w3.org/2000/svg"
 width="512.000000pt" height="512.000000pt" viewBox="0 0 512.000000 512.000000"
 preserveAspectRatio="xMidYMid meet">
<metadata>
Created by potrace 1.16, written by Peter Selinger 2001-2019
</metadata>
<g transform="translate(0.000000,512.000000) scale(0.100000,-0.100000)"
fill="#000000" stroke="none">
<path d="M2270 5109 c-180 -21 -467 -89 -580 -137 l-44 -18 155 -81 c196 -102
397 -221 572 -340 l139 -93 70 62 c90 80 196 201 216 247 12 27 16 74 16 193
1 86 -3 160 -7 165 -12 11 -444 13 -537 2z"/>
<path d="M3062 4937 c-1 -246 -34 -325 -219 -517 -68 -70 -123 -130 -123 -132
0 -3 28 -27 63 -54 34 -27 108 -88 164 -136 55 -49 106 -88 112 -88 6 0 48 23
94 51 208 130 456 256 602 307 80 29 269 77 380 98 50 9 94 20 98 24 20 17
-281 234 -453 327 -118 64 -269 129 -400 173 -113 38 -274 80 -304 80 -11 0
-14 -27 -14 -133z"/>
<path d="M1240 4757 c-413 -246 -755 -617 -975 -1056 -25 -51 -44 -95 -41 -98
2 -3 51 12 108 32 57 20 180 56 273 80 158 40 271 64 765 160 102 20 241 55
310 77 151 51 377 161 524 258 l109 71 -84 57 c-179 120 -404 249 -633 363
-132 65 -242 119 -245 119 -3 0 -53 -28 -111 -63z"/>
<path d="M4400 4263 c-215 -32 -448 -85 -581 -131 -104 -36 -276 -123 -453
-228 l-128 -76 54 -57 c88 -90 189 -210 248 -294 43 -60 59 -77 75 -74 11 3
58 16 105 30 219 64 442 79 584 39 77 -22 197 -77 272 -125 126 -79 319 -251
473 -420 29 -32 55 -57 56 -55 5 5 -31 203 -54 303 -83 354 -270 725 -515
1023 -62 75 -66 76 -136 65z"/>
<path d="M2430 4069 c-239 -170 -517 -306 -781 -382 -46 -14 -241 -55 -434
-92 -552 -106 -782 -169 -1026 -282 l-96 -44 -12 -52 c-151 -634 -91 -1233
179 -1782 75 -154 187 -344 203 -345 4 0 7 7 7 15 0 30 80 253 133 371 324
726 1143 1607 2172 2338 l69 49 -44 40 c-56 49 -276 227 -281 227 -2 -1 -42
-28 -89 -61z"/>
<path d="M2870 3579 c-1027 -737 -1811 -1603 -2090 -2308 -45 -114 -94 -293
-105 -384 l-8 -59 59 -60 c365 -372 843 -628 1361 -728 57 -11 108 -20 114
-20 13 0 77 139 128 277 124 340 241 764 426 1548 157 667 201 814 300 1023
72 149 141 248 242 341 l83 77 -51 70 c-83 110 -283 334 -299 334 -3 0 -75
-50 -160 -111z"/>
<path d="M3955 3236 c-78 -13 -206 -44 -214 -52 -2 -2 33 -74 77 -161 140
-275 239 -532 328 -853 114 -407 191 -838 225 -1259 l12 -152 45 43 c173 168
388 499 500 770 108 260 192 626 192 837 l0 57 -107 130 c-279 335 -522 545
-718 620 -85 32 -218 40 -340 20z"/>
<path d="M3456 3029 c-128 -113 -232 -329 -327 -684 -16 -60 -79 -319 -140
-575 -221 -927 -348 -1373 -483 -1689 l-35 -81 142 0 c496 0 1015 172 1445
478 l92 66 -5 46 c-2 25 -7 99 -10 165 -30 601 -176 1295 -386 1825 -59 149
-224 490 -238 490 -4 0 -29 -18 -55 -41z"/>
</g>
</svg>
