<?xml version="1.0" standalone="no"?>
<!DOCTYPE svg PUBLIC "-//W3C//DTD SVG 20010904//EN"
 "http://www.w3.org/TR/2001/REC-SVG-20010904/DTD/svg10.dtd">
<svg version="1.0" xmlns="http://www.w3.org/2000/svg"
 width="512.000000pt" height="512.000000pt" viewBox="0 0 512.000000 512.000000"
 preserveAspectRatio="xMidYMid meet">
<metadata>
Created by potrace 1.16, written by Peter Selinger 2001-2019
</metadata>
<g transform="translate(0.000000,512.000000) scale(0.100000,-0.100000)"
fill="#000000" stroke="none">
<path d="M2364 5100 c-38 -10 -98 -30 -133 -45 -67 -28 -1534 -870 -1636 -939
-127 -85 -224 -197 -289 -337 -75 -158 -71 -87 -71 -1219 0 -1132 -4 -1061 71
-1219 65 -140 162 -252 289 -337 102 -69 1569 -911 1636 -939 210 -89 448 -89
658 0 67 28 1534 870 1636 939 127 85 224 197 289 337 75 158 71 87 71 1219 0
1132 4 1061 -71 1219 -65 140 -162 252 -289 337 -102 69 -1569 911 -1636 939
-113 48 -201 65 -333 64 -84 0 -143 -6 -192 -19z m337 -413 c31 -12 404 -222
829 -467 596 -343 785 -456 825 -495 65 -63 111 -156 125 -250 13 -94 13
-1736 0 -1830 -14 -94 -60 -187 -125 -250 -40 -38 -230 -153 -825 -495 -425
-245 -798 -455 -829 -467 -78 -31 -204 -31 -282 0 -31 12 -404 222 -829 467
-596 343 -785 456 -825 495 -65 63 -111 156 -125 250 -13 94 -13 1736 0 1830
14 94 60 187 125 250 40 38 230 153 825 495 425 245 798 455 829 467 78 31
204 31 282 0z"/>
<path d="M1399 3367 c-64 -34 -104 -102 -103 -176 0 -99 10 -110 330 -380 161
-135 293 -248 293 -251 0 -3 -132 -116 -293 -251 -320 -270 -330 -281 -330
-380 -1 -74 39 -142 103 -176 56 -29 136 -31 189 -4 20 11 213 168 429 351
424 359 425 360 425 460 0 100 -1 101 -425 460 -216 183 -409 340 -429 351
-53 27 -133 25 -189 -4z"/>
<path d="M2672 2130 c-81 -20 -143 -91 -150 -175 -8 -92 32 -166 109 -205 36
-19 62 -20 540 -20 493 0 503 0 547 21 141 69 142 280 2 359 l-45 25 -485 2
c-267 1 -500 -2 -518 -7z"/>
</g>
</svg>
