<?xml version="1.0" standalone="no"?>
<!DOCTYPE svg PUBLIC "-//W3C//DTD SVG 20010904//EN"
 "http://www.w3.org/TR/2001/REC-SVG-20010904/DTD/svg10.dtd">
<svg version="1.0" xmlns="http://www.w3.org/2000/svg"
 width="512.000000pt" height="512.000000pt" viewBox="0 0 512.000000 512.000000"
 preserveAspectRatio="xMidYMid meet">
<metadata>
Created by potrace 1.16, written by Peter Selinger 2001-2019
</metadata>
<g transform="translate(0.000000,512.000000) scale(0.100000,-0.100000)"
fill="#000000" stroke="none">
<path d="M1876 4791 c-53 -35 -69 -73 -74 -182 l-5 -99 -395 0 c-372 0 -396
-1 -426 -19 -17 -11 -40 -35 -51 -53 -18 -30 -20 -54 -23 -280 l-4 -248 2111
0 2111 0 0 253 c0 278 -2 285 -66 328 -27 18 -54 19 -431 19 l-403 0 0 103 c0
112 -11 141 -66 178 -39 26 -126 26 -168 0 -52 -33 -67 -71 -73 -182 l-6 -99
-373 0 -374 0 0 103 c0 112 -11 141 -66 178 -39 26 -126 26 -168 0 -52 -33
-67 -71 -73 -182 l-6 -99 -368 0 -369 0 0 103 c0 112 -11 141 -66 178 -40 26
-129 26 -168 0z"/>
<path d="M896 3523 c-21 -268 -48 -453 -101 -668 -120 -492 -331 -909 -633
-1258 -47 -54 -93 -102 -102 -107 -35 -19 -60 -74 -60 -131 0 -60 20 -99 66
-130 28 -18 87 -19 2045 -19 l2016 0 39 28 c84 61 256 263 368 432 266 399
442 854 530 1370 17 97 42 327 52 473 l6 97 -2110 0 -2110 0 -6 -87z"/>
<path d="M5070 2042 c-153 -359 -441 -778 -685 -993 -86 -77 -167 -116 -266
-129 -45 -6 -695 -10 -1647 -10 l-1574 0 4 -247 c3 -227 5 -251 23 -281 11
-18 34 -42 51 -53 31 -19 73 -19 2039 -19 1982 0 2008 0 2040 20 70 43 66 -12
63 951 l-3 867 -45 -106z"/>
</g>
</svg>
