<?xml version="1.0" standalone="no"?>
<!DOCTYPE svg PUBLIC "-//W3C//DTD SVG 20010904//EN"
 "http://www.w3.org/TR/2001/REC-SVG-20010904/DTD/svg10.dtd">
<svg version="1.0" xmlns="http://www.w3.org/2000/svg"
 width="512.000000pt" height="512.000000pt" viewBox="0 0 512.000000 512.000000"
 preserveAspectRatio="xMidYMid meet">
<metadata>
Created by potrace 1.16, written by Peter Selinger 2001-2019
</metadata>
<g transform="translate(0.000000,512.000000) scale(0.100000,-0.100000)"
fill="#000000" stroke="none">
<path d="M1825 4626 c-268 -66 -455 -293 -472 -576 l-6 -99 -431 -3 -431 -3
-75 -27 c-149 -55 -277 -167 -344 -302 -70 -139 -66 -61 -66 -1398 0 -832 3
-1223 11 -1260 6 -29 29 -91 51 -136 74 -156 224 -279 393 -322 77 -20 112
-20 2105 -20 1993 0 2028 0 2105 20 169 43 319 166 393 322 22 45 45 107 51
136 8 37 11 428 11 1260 0 1336 4 1259 -66 1398 -82 164 -248 290 -428 323
-37 7 -212 11 -456 11 l-397 0 -6 98 c-12 191 -86 339 -230 458 -62 51 -178
107 -255 123 -78 16 -1389 14 -1457 -3z m905 -1200 c730 -110 1175 -879 906
-1565 -115 -291 -374 -549 -657 -655 -162 -61 -221 -70 -419 -71 -162 0 -195
3 -269 23 -232 63 -397 158 -557 320 -315 318 -414 796 -253 1217 195 506 717
811 1249 731z"/>
<path d="M2407 2884 c-197 -47 -376 -217 -438 -414 -28 -91 -35 -226 -15 -319
46 -219 218 -400 441 -467 82 -25 248 -25 330 0 428 128 592 627 322 981 -80
105 -225 197 -355 224 -71 15 -214 13 -285 -5z"/>
</g>
</svg>
