<?xml version="1.0" standalone="no"?>
<!DOCTYPE svg PUBLIC "-//W3C//DTD SVG 20010904//EN"
 "http://www.w3.org/TR/2001/REC-SVG-20010904/DTD/svg10.dtd">
<svg version="1.0" xmlns="http://www.w3.org/2000/svg"
 width="512.000000pt" height="512.000000pt" viewBox="0 0 512.000000 512.000000"
 preserveAspectRatio="xMidYMid meet">
<metadata>
Created by potrace 1.16, written by Peter Selinger 2001-2019
</metadata>
<g transform="translate(0.000000,512.000000) scale(0.100000,-0.100000)"
fill="#000000" stroke="none">
<path d="M911 5100 c-118 -43 -207 -123 -264 -239 l-32 -66 0 -2235 0 -2235
32 -66 c58 -119 148 -198 269 -239 58 -20 85 -20 1664 -18 l1605 3 70 34 c92
45 171 124 216 216 l34 70 3 1648 2 1647 -512 0 c-282 0 -547 5 -587 10 -206
27 -364 185 -391 391 -5 40 -10 305 -10 587 l0 512 -1022 0 c-984 -1 -1025 -1
-1077 -20z m2616 -2112 c43 -24 73 -76 73 -128 0 -52 -24 -95 -70 -123 l-35
-22 -935 0 c-917 0 -936 0 -968 20 -45 27 -72 73 -72 124 0 73 42 124 115 142
16 4 442 6 945 6 846 -2 917 -3 947 -19z m0 -600 c43 -24 73 -76 73 -128 0
-52 -24 -95 -70 -123 l-35 -22 -935 0 c-917 0 -936 0 -968 20 -45 27 -72 73
-72 124 0 73 42 124 115 142 16 4 442 6 945 6 846 -2 917 -3 947 -19z m0 -600
c43 -24 73 -76 73 -128 0 -52 -24 -95 -70 -123 l-35 -22 -935 0 c-917 0 -936
0 -968 20 -45 27 -72 73 -72 124 0 73 42 124 115 142 16 4 442 6 945 6 846 -2
917 -3 947 -19z m-600 -600 c96 -53 97 -195 1 -253 -32 -19 -51 -20 -668 -20
-617 0 -636 1 -668 20 -45 27 -72 73 -72 124 0 73 41 124 115 142 16 4 307 7
645 6 562 -2 618 -3 647 -19z"/>
<path d="M3310 4531 c0 -494 1 -515 20 -546 42 -68 28 -66 593 -63 l507 3
-560 560 -560 560 0 -514z"/>
</g>
</svg>
