<?xml version="1.0" standalone="no"?>
<!DOCTYPE svg PUBLIC "-//W3C//DTD SVG 20010904//EN"
 "http://www.w3.org/TR/2001/REC-SVG-20010904/DTD/svg10.dtd">
<svg version="1.0" xmlns="http://www.w3.org/2000/svg"
 width="512.000000pt" height="512.000000pt" viewBox="0 0 512.000000 512.000000"
 preserveAspectRatio="xMidYMid meet">
<metadata>
Created by potrace 1.16, written by Peter Selinger 2001-2019
</metadata>
<g transform="translate(0.000000,512.000000) scale(0.100000,-0.100000)"
fill="#000000" stroke="none">
<path d="M1286 3870 c-670 -291 -1227 -537 -1238 -547 -71 -64 -63 -207 14
-257 13 -8 569 -251 1236 -540 1055 -457 1220 -526 1262 -526 43 0 162 49 882
361 458 199 841 364 850 366 16 5 18 -48 20 -863 l3 -869 24 -39 c34 -54 74
-76 141 -76 65 0 110 24 140 72 20 32 20 53 20 959 0 749 -2 929 -13 937 -7 6
-484 72 -1060 146 -683 88 -1056 140 -1076 150 -142 74 -91 286 69 286 47 0
2266 -283 2314 -296 15 -3 43 -26 62 -50 41 -49 62 -54 112 -24 93 57 99 216
10 274 -13 8 -569 251 -1236 540 -1103 478 -1217 526 -1265 525 -46 0 -192
-61 -1271 -529z"/>
<path d="M974 2296 c-18 -14 -19 -29 -19 -358 1 -387 4 -411 75 -553 134 -266
473 -490 899 -594 238 -59 310 -66 631 -66 321 0 393 7 631 66 431 105 771
331 903 601 64 131 67 153 64 549 l-3 354 -25 8 c-22 8 -129 -35 -700 -283
-371 -161 -701 -301 -733 -311 -66 -21 -189 -25 -252 -8 -22 6 -351 145 -731
310 -381 164 -698 299 -706 299 -8 0 -23 -6 -34 -14z"/>
</g>
</svg>
