<?xml version="1.0" standalone="no"?>
<!DOCTYPE svg PUBLIC "-//W3C//DTD SVG 20010904//EN"
 "http://www.w3.org/TR/2001/REC-SVG-20010904/DTD/svg10.dtd">
<svg version="1.0" xmlns="http://www.w3.org/2000/svg"
 width="512.000000pt" height="512.000000pt" viewBox="0 0 512.000000 512.000000"
 preserveAspectRatio="xMidYMid meet">
<metadata>
Created by potrace 1.16, written by Peter Selinger 2001-2019
</metadata>
<g transform="translate(0.000000,512.000000) scale(0.100000,-0.100000)"
fill="#000000" stroke="none">
<path d="M540 5094 c-17 -15 -37 -39 -45 -55 -18 -33 -20 -101 -4 -132 6 -12
295 -307 643 -654 l631 -633 800 0 800 0 -735 736 c-404 404 -747 742 -762
750 -23 12 -129 14 -662 14 l-634 0 -32 -26z"/>
<path d="M3245 5101 c-16 -10 -131 -121 -255 -245 l-225 -226 400 -400 400
-400 523 522 c288 288 530 535 538 550 18 35 18 101 -1 137 -8 16 -28 40 -45
55 l-32 26 -636 0 c-608 0 -638 -1 -667 -19z"/>
<path d="M1760 3158 l0 -173 -93 -62 c-351 -233 -586 -585 -679 -1016 -32
-150 -32 -454 0 -614 61 -305 203 -579 411 -795 318 -333 705 -498 1161 -498
456 0 843 165 1160 496 682 712 553 1882 -269 2429 l-90 60 -1 173 0 172 -155
0 -155 0 0 -104 0 -105 -65 19 c-254 73 -596 73 -850 0 l-65 -19 0 105 0 104
-155 0 -155 0 0 -172z m988 -634 c175 -36 341 -125 471 -252 352 -347 385
-883 77 -1267 -124 -155 -281 -260 -482 -321 -82 -25 -103 -28 -254 -28 -151
0 -173 3 -253 27 -200 62 -360 168 -483 322 -264 329 -281 772 -44 1126 127
189 358 344 585 392 95 21 286 21 383 1z"/>
<path d="M2395 2234 c-199 -48 -387 -221 -455 -418 -68 -198 -40 -413 75 -587
185 -278 555 -369 858 -212 107 55 222 173 275 283 187 382 -16 830 -423 935
-75 19 -248 19 -330 -1z"/>
</g>
</svg>
