<?xml version="1.0" standalone="no"?>
<!DOCTYPE svg PUBLIC "-//W3C//DTD SVG 20010904//EN"
 "http://www.w3.org/TR/2001/REC-SVG-20010904/DTD/svg10.dtd">
<svg version="1.0" xmlns="http://www.w3.org/2000/svg"
 width="512.000000pt" height="512.000000pt" viewBox="0 0 512.000000 512.000000"
 preserveAspectRatio="xMidYMid meet">
<metadata>
Created by potrace 1.16, written by Peter Selinger 2001-2019
</metadata>
<g transform="translate(0.000000,512.000000) scale(0.100000,-0.100000)"
fill="#000000" stroke="none">
<path d="M966 5101 c-15 -10 -37 -32 -47 -47 -18 -28 -19 -70 -19 -1226 0
-659 -2 -1198 -4 -1198 -2 0 -25 10 -52 22 -27 11 -71 27 -99 34 -68 19 -224
18 -298 -2 -208 -54 -377 -223 -431 -431 -21 -78 -21 -228 0 -306 53 -206 225
-378 430 -431 79 -20 228 -21 307 0 208 54 377 223 431 431 14 54 16 206 16
1289 l0 1229 47 -55 c150 -175 362 -371 583 -539 139 -107 182 -153 224 -240
29 -62 31 -73 31 -181 0 -109 -2 -119 -32 -183 -69 -145 -201 -238 -369 -258
-99 -12 -136 -29 -165 -75 -26 -42 -26 -129 0 -168 34 -52 68 -66 157 -66 104
0 216 28 324 82 69 34 103 60 180 138 78 77 104 111 138 180 142 285 99 629
-105 850 -36 38 -112 106 -169 150 -166 129 -276 223 -389 337 -139 140 -228
251 -374 467 -66 99 -133 188 -148 198 -38 25 -128 24 -167 -1z"/>
<path d="M4890 3890 c-14 -4 -488 -138 -1055 -299 -566 -160 -1045 -298 -1063
-308 -18 -9 -41 -31 -52 -48 -20 -32 -20 -54 -20 -1069 0 -570 -2 -1036 -4
-1036 -2 0 -25 10 -52 22 -27 11 -71 27 -99 34 -68 19 -224 18 -298 -2 -208
-54 -377 -223 -431 -431 -21 -78 -21 -228 0 -306 53 -206 225 -378 430 -431
79 -20 228 -21 307 0 198 51 360 206 428 409 11 32 15 237 19 1024 l5 983 880
249 c484 137 892 251 908 255 l27 6 0 -606 c0 -333 -2 -606 -4 -606 -2 0 -25
10 -52 22 -27 11 -71 27 -99 34 -68 19 -224 18 -298 -2 -208 -54 -377 -223
-431 -431 -21 -78 -21 -228 0 -306 54 -208 223 -377 431 -431 79 -21 228 -20
307 0 155 40 310 163 379 300 71 142 67 44 67 1540 0 1305 -1 1350 -19 1378
-31 47 -69 66 -131 65 -30 0 -66 -4 -80 -9z"/>
</g>
</svg>
