<?xml version="1.0" standalone="no"?>
<!DOCTYPE svg PUBLIC "-//W3C//DTD SVG 20010904//EN"
 "http://www.w3.org/TR/2001/REC-SVG-20010904/DTD/svg10.dtd">
<svg version="1.0" xmlns="http://www.w3.org/2000/svg"
 width="512.000000pt" height="512.000000pt" viewBox="0 0 512.000000 512.000000"
 preserveAspectRatio="xMidYMid meet">
<metadata>
Created by potrace 1.16, written by Peter Selinger 2001-2019
</metadata>
<g transform="translate(0.000000,512.000000) scale(0.100000,-0.100000)"
fill="#000000" stroke="none">
<path d="M1320 5105 c-650 -79 -1138 -350 -1291 -715 -21 -48 -23 -72 -24
-190 0 -124 3 -140 27 -197 121 -284 458 -509 940 -627 243 -60 345 -70 693
-70 283 -1 336 2 460 22 592 94 1021 340 1157 662 26 62 32 92 36 175 9 197
-42 319 -203 481 -56 57 -135 124 -180 154 -236 153 -570 264 -924 305 -154
18 -542 18 -691 0z"/>
<path d="M2 3358 c4 -181 5 -197 30 -255 139 -330 572 -578 1175 -673 70 -12
205 -23 298 -27 l170 -6 54 109 c84 171 190 326 317 463 l59 64 -75 -8 c-772
-79 -1523 99 -1961 467 l-71 60 4 -194z"/>
<path d="M3265 3294 c-270 -41 -512 -132 -720 -273 -358 -240 -599 -600 -697
-1038 -20 -86 -22 -127 -22 -333 0 -206 2 -247 22 -333 98 -440 341 -799 702
-1041 176 -119 343 -190 566 -242 113 -27 131 -29 354 -28 206 0 247 2 334 22
660 148 1140 628 1288 1289 20 86 22 127 22 333 0 206 -2 247 -22 333 -147
660 -628 1142 -1284 1288 -74 17 -136 21 -303 24 -115 2 -223 1 -240 -1z m355
-761 l1 -168 52 -24 c116 -55 223 -205 234 -330 l6 -61 -147 0 -146 0 0 28 c0
67 -68 122 -150 122 -95 0 -150 -55 -150 -148 0 -104 47 -144 184 -161 168
-20 300 -113 369 -258 30 -64 32 -74 32 -183 0 -111 -1 -118 -34 -185 -42 -85
-125 -172 -198 -206 l-52 -24 -1 -167 0 -168 -150 0 -150 0 0 168 -1 167 -52
24 c-117 55 -223 204 -234 331 l-6 60 147 0 146 0 0 -27 c0 -68 68 -123 150
-123 95 0 150 55 150 149 0 61 -23 107 -67 133 -15 9 -68 21 -117 27 -168 20
-300 113 -369 258 -30 64 -32 74 -32 183 0 109 2 119 32 183 39 83 126 173
200 208 l52 24 1 168 0 167 150 0 150 0 0 -167z"/>
<path d="M0 2483 c0 -182 9 -233 54 -323 110 -219 371 -407 729 -525 202 -66
390 -102 693 -130 l51 -5 6 203 c4 148 11 229 26 302 12 55 21 100 21 101 0 1
-50 4 -112 8 -575 35 -1082 209 -1404 482 l-64 55 0 -168z"/>
<path d="M2 1559 c4 -182 5 -198 30 -256 139 -330 568 -576 1175 -674 93 -15
195 -22 376 -26 136 -3 247 -2 247 2 0 4 -16 34 -36 66 -75 124 -178 374 -209
510 -6 26 -8 26 -123 33 -565 33 -1077 210 -1399 483 l-65 55 4 -193z"/>
</g>
</svg>
