<?xml version="1.0" standalone="no"?>
<!DOCTYPE svg PUBLIC "-//W3C//DTD SVG 20010904//EN"
 "http://www.w3.org/TR/2001/REC-SVG-20010904/DTD/svg10.dtd">
<svg version="1.0" xmlns="http://www.w3.org/2000/svg"
 width="512.000000pt" height="512.000000pt" viewBox="0 0 512.000000 512.000000"
 preserveAspectRatio="xMidYMid meet">
<metadata>
Created by potrace 1.16, written by Peter Selinger 2001-2019
</metadata>
<g transform="translate(0.000000,512.000000) scale(0.100000,-0.100000)"
fill="#000000" stroke="none">
<path d="M1060 5109 c-174 -12 -409 -37 -499 -54 -223 -42 -423 -226 -485
-445 -16 -60 -39 -227 -58 -440 -18 -198 -17 -948 1 -1020 48 -192 208 -343
409 -385 220 -47 1304 -42 1517 6 186 42 359 214 404 401 33 140 51 822 32
1221 -13 270 -28 357 -78 450 -37 70 -146 178 -213 212 -111 56 -125 58 -530
61 -206 1 -431 -2 -500 -7z"/>
<path d="M3190 5109 c-203 -30 -375 -197 -424 -410 -48 -207 -44 -1322 5
-1527 45 -185 216 -356 401 -401 140 -33 812 -51 1216 -32 361 17 442 41 575
172 86 86 132 178 148 299 16 118 5 825 -15 1030 -42 408 -71 494 -216 641
-140 141 -246 176 -640 214 -205 20 -945 30 -1050 14z"/>
<path d="M665 2380 c-282 -15 -386 -50 -507 -171 -87 -86 -131 -174 -148 -296
-15 -102 -8 -798 10 -983 19 -200 41 -363 56 -420 45 -161 173 -314 325 -389
101 -50 200 -70 494 -97 247 -24 987 -27 1075 -5 188 47 344 212 385 408 47
221 42 1320 -6 1521 -45 186 -216 356 -402 401 -26 6 -98 16 -160 21 -156 14
-916 20 -1122 10z"/>
<path d="M3585 2383 c-166 -6 -372 -24 -424 -38 -82 -21 -159 -64 -225 -125
-120 -111 -168 -224 -186 -440 -29 -364 -21 -1185 15 -1352 42 -200 193 -361
385 -409 72 -18 822 -19 1020 -1 213 19 380 42 440 58 199 56 378 235 434 434
15 57 37 219 56 420 17 177 25 900 11 990 -33 213 -196 386 -411 434 -122 28
-713 43 -1115 29z"/>
</g>
</svg>
