<?xml version="1.0" standalone="no"?>
<!DOCTYPE svg PUBLIC "-//W3C//DTD SVG 20010904//EN"
 "http://www.w3.org/TR/2001/REC-SVG-20010904/DTD/svg10.dtd">
<svg version="1.0" xmlns="http://www.w3.org/2000/svg"
 width="512.000000pt" height="512.000000pt" viewBox="0 0 512.000000 512.000000"
 preserveAspectRatio="xMidYMid meet">
<metadata>
Created by potrace 1.16, written by Peter Selinger 2001-2019
</metadata>
<g transform="translate(0.000000,512.000000) scale(0.100000,-0.100000)"
fill="#000000" stroke="none">
<path d="M1118 5107 c-63 -24 -121 -63 -213 -144 -50 -43 -126 -108 -170 -145
-420 -349 -623 -895 -551 -1479 83 -667 481 -1381 1211 -2170 580 -627 1163
-1007 1745 -1135 117 -26 140 -28 365 -28 212 0 252 2 342 22 269 59 521 186
723 365 245 217 286 256 317 300 117 171 69 356 -149 578 -146 149 -414 373
-542 453 -229 144 -421 170 -594 80 -77 -40 -194 -137 -359 -296 -140 -136
-195 -168 -302 -176 -252 -18 -606 237 -1032 743 -256 305 -421 577 -469 775
-50 211 -1 341 179 473 134 98 314 259 361 321 152 201 127 444 -83 796 -139
234 -280 433 -370 524 -118 119 -177 150 -292 154 -49 1 -94 -3 -117 -11z"/>
</g>
</svg>
